<?xml version="1.0" encoding="UTF-8"?>
<svg xmlns="http://www.w3.org/2000/svg" xmlns:xlink="http://www.w3.org/1999/xlink" width="150px" height="150px" viewBox="0 0 150 150" version="1.1">
<g id="surface1">
<path style=" stroke:none;fill-rule:nonzero;fill:rgb(98.823529%,86.666667%,40%);fill-opacity:1;" d="M 106.066406 150 L 73.996094 124.421875 C 73.296875 123.867188 73.183594 122.851562 73.738281 122.15625 C 74.292969 121.460938 75.308594 121.34375 76.003906 121.902344 L 103.515625 143.84375 L 107.609375 107.609375 L 143.84375 103.519531 L 121.898438 76.003906 C 121.34375 75.308594 121.457031 74.296875 122.15625 73.742188 C 122.851562 73.183594 123.867188 73.300781 124.421875 73.996094 L 150 106.066406 L 110.523438 110.523438 Z M 106.066406 150 "/>
<path style=" stroke:none;fill-rule:nonzero;fill:rgb(98.823529%,86.666667%,40%);fill-opacity:1;" d="M 26.839844 76.613281 C 26.367188 76.613281 25.898438 76.40625 25.578125 76.003906 L 0 43.933594 L 39.476562 39.476562 L 43.933594 0 L 76.003906 25.578125 C 76.703125 26.132812 76.816406 27.148438 76.261719 27.84375 C 75.707031 28.539062 74.691406 28.65625 73.996094 28.097656 L 46.484375 6.15625 L 42.394531 42.390625 L 6.15625 46.484375 L 28.097656 73.996094 C 28.65625 74.691406 28.539062 75.707031 27.84375 76.261719 C 27.546875 76.496094 27.191406 76.613281 26.839844 76.613281 Z M 26.839844 76.613281 "/>
<path style=" stroke:none;fill-rule:nonzero;fill:rgb(98.823529%,86.666667%,40%);fill-opacity:1;" d="M 6.175781 76.613281 C 5.566406 76.613281 4.980469 76.265625 4.710938 75.671875 C 4.339844 74.863281 4.691406 73.90625 5.503906 73.535156 L 36.769531 59.164062 L 23.59375 23.59375 L 59.164062 36.769531 L 73.535156 5.503906 C 73.90625 4.695312 74.863281 4.339844 75.671875 4.710938 C 76.480469 5.082031 76.835938 6.039062 76.464844 6.847656 L 60.84375 40.832031 L 29.054688 29.054688 L 40.832031 60.84375 L 6.847656 76.464844 C 6.628906 76.566406 6.402344 76.613281 6.175781 76.613281 Z M 6.175781 76.613281 "/>
<path style=" stroke:none;fill-rule:nonzero;fill:rgb(98.823529%,86.666667%,40%);fill-opacity:1;" d="M 75 145.4375 C 74.773438 145.4375 74.542969 145.390625 74.328125 145.289062 C 73.519531 144.917969 73.164062 143.960938 73.535156 143.152344 L 89.15625 109.167969 L 120.945312 120.945312 L 109.167969 89.15625 L 143.152344 73.535156 C 143.960938 73.164062 144.917969 73.519531 145.289062 74.328125 C 145.660156 75.136719 145.304688 76.09375 144.496094 76.464844 L 113.230469 90.835938 L 126.40625 126.40625 L 90.835938 113.230469 L 76.464844 144.496094 C 76.195312 145.089844 75.609375 145.4375 75 145.4375 Z M 75 145.4375 "/>
<path style=" stroke:none;fill-rule:nonzero;fill:rgb(98.823529%,86.666667%,40%);fill-opacity:1;" d="M 99.71875 134.671875 L 73.808594 106.25 C 73.207031 105.589844 73.253906 104.570312 73.914062 103.972656 C 74.570312 103.371094 75.589844 103.417969 76.191406 104.078125 L 96.085938 125.902344 L 94.644531 94.644531 L 125.902344 96.085938 L 104.078125 76.191406 C 103.417969 75.59375 103.371094 74.574219 103.972656 73.914062 C 104.570312 73.257812 105.589844 73.210938 106.25 73.808594 L 134.671875 99.71875 L 98.027344 98.027344 Z M 99.71875 134.671875 "/>
<path style=" stroke:none;fill-rule:nonzero;fill:rgb(98.823529%,86.666667%,40%);fill-opacity:1;" d="M 44.835938 76.613281 C 44.449219 76.613281 44.058594 76.472656 43.75 76.191406 L 15.328125 50.28125 L 51.972656 51.972656 L 50.28125 15.328125 L 76.191406 43.75 C 76.789062 44.410156 76.742188 45.429688 76.085938 46.03125 C 75.425781 46.628906 74.40625 46.582031 73.808594 45.925781 L 53.914062 24.097656 L 55.355469 55.355469 L 24.097656 53.914062 L 45.921875 73.808594 C 46.582031 74.410156 46.628906 75.429688 46.027344 76.085938 C 45.710938 76.433594 45.273438 76.613281 44.835938 76.613281 Z M 44.835938 76.613281 "/>
<path style=" stroke:none;fill-rule:nonzero;fill:rgb(99.215686%,90.980392%,63.529412%);fill-opacity:1;" d="M 123.160156 76.613281 C 122.804688 76.613281 122.453125 76.496094 122.15625 76.261719 C 121.457031 75.707031 121.34375 74.691406 121.898438 73.996094 L 143.84375 46.484375 L 107.605469 42.394531 L 103.515625 6.15625 L 76.003906 28.101562 C 75.308594 28.65625 74.292969 28.542969 73.738281 27.84375 C 73.183594 27.148438 73.296875 26.136719 73.996094 25.578125 L 106.066406 0 L 110.523438 39.476562 L 150 43.933594 L 124.421875 76.003906 C 124.101562 76.40625 123.632812 76.613281 123.160156 76.613281 Z M 123.160156 76.613281 "/>
<path style=" stroke:none;fill-rule:nonzero;fill:rgb(99.215686%,90.980392%,63.529412%);fill-opacity:1;" d="M 43.933594 150 L 39.476562 110.523438 L 0 106.066406 L 25.578125 73.996094 C 26.132812 73.300781 27.148438 73.183594 27.84375 73.738281 C 28.539062 74.296875 28.65625 75.308594 28.097656 76.003906 L 6.15625 103.515625 L 42.394531 107.609375 L 46.480469 143.84375 L 73.996094 121.898438 C 74.691406 121.34375 75.703125 121.457031 76.257812 122.15625 C 76.816406 122.851562 76.699219 123.867188 76.003906 124.421875 Z M 43.933594 150 "/>
<path style=" stroke:none;fill-rule:nonzero;fill:rgb(99.215686%,90.980392%,63.529412%);fill-opacity:1;" d="M 75 145.4375 C 74.390625 145.4375 73.804688 145.089844 73.535156 144.496094 L 59.164062 113.230469 L 23.59375 126.40625 L 36.769531 90.835938 L 5.503906 76.464844 C 4.695312 76.09375 4.339844 75.136719 4.710938 74.328125 C 5.082031 73.519531 6.039062 73.164062 6.847656 73.535156 L 40.832031 89.15625 L 29.054688 120.945312 L 60.84375 109.167969 L 76.464844 143.152344 C 76.835938 143.960938 76.480469 144.917969 75.671875 145.289062 C 75.457031 145.390625 75.226562 145.4375 75 145.4375 Z M 75 145.4375 "/>
<path style=" stroke:none;fill-rule:nonzero;fill:rgb(99.215686%,90.980392%,63.529412%);fill-opacity:1;" d="M 143.824219 76.613281 C 143.597656 76.613281 143.371094 76.566406 143.152344 76.464844 L 109.167969 60.84375 L 120.945312 29.054688 L 89.15625 40.832031 L 73.535156 6.847656 C 73.164062 6.039062 73.519531 5.082031 74.328125 4.710938 C 75.136719 4.339844 76.09375 4.695312 76.464844 5.503906 L 90.835938 36.769531 L 126.40625 23.59375 L 113.230469 59.164062 L 144.496094 73.535156 C 145.304688 73.910156 145.660156 74.867188 145.289062 75.675781 C 145.015625 76.265625 144.433594 76.613281 143.824219 76.613281 Z M 143.824219 76.613281 "/>
<path style=" stroke:none;fill-rule:nonzero;fill:rgb(99.215686%,90.980392%,63.529412%);fill-opacity:1;" d="M 105.164062 76.613281 C 104.726562 76.613281 104.289062 76.4375 103.972656 76.085938 C 103.371094 75.429688 103.417969 74.410156 104.078125 73.808594 L 125.902344 53.914062 L 94.644531 55.355469 L 96.085938 24.097656 L 76.191406 45.925781 C 75.589844 46.582031 74.570312 46.628906 73.914062 46.03125 C 73.253906 45.429688 73.207031 44.410156 73.808594 43.75 L 99.71875 15.328125 L 98.027344 51.972656 L 134.671875 50.28125 L 106.25 76.191406 C 105.941406 76.472656 105.550781 76.613281 105.164062 76.613281 Z M 105.164062 76.613281 "/>
<path style=" stroke:none;fill-rule:nonzero;fill:rgb(99.215686%,90.980392%,63.529412%);fill-opacity:1;" d="M 50.28125 134.671875 L 51.972656 98.027344 L 15.328125 99.71875 L 43.75 73.808594 C 44.410156 73.210938 45.429688 73.257812 46.027344 73.914062 C 46.628906 74.574219 46.582031 75.59375 45.921875 76.191406 L 24.097656 96.085938 L 55.355469 94.644531 L 53.914062 125.902344 L 73.808594 104.078125 C 74.40625 103.417969 75.425781 103.375 76.085938 103.972656 C 76.742188 104.570312 76.789062 105.589844 76.191406 106.25 Z M 50.28125 134.671875 "/>
<path style=" stroke:none;fill-rule:nonzero;fill:rgb(98.431373%,81.568627%,3.529412%);fill-opacity:1;" d="M 109.648438 75 C 109.648438 94.136719 94.136719 109.648438 75 109.648438 C 55.867188 109.648438 40.351562 94.136719 40.351562 75 C 40.351562 55.867188 55.867188 40.351562 75 40.351562 C 94.136719 40.351562 109.648438 55.867188 109.648438 75 Z M 109.648438 75 "/>
</g>
</svg>
